<svg height="512pt" viewBox="0 0 512 512" width="512pt" xmlns="http://www.w3.org/2000/svg"><path d="m406 151c-8.289062 0-15-6.710938-15-15v-60c0-8.289062 6.710938-15 15-15s15 6.710938 15 15v60c0 8.289062-6.710938 15-15 15zm0 0" fill="#97d325"/><path d="m451 241v211h-120l-30-30h-90l-31 30h-120v-211l196-135zm0 0" fill="#f2fde0"/><path d="m451 241v211h-120l-30-30h-45v-316zm0 0" fill="#d3f3db"/><path d="m451 241-90-60v-45c0-8.285156 6.714844-15 15-15h60c8.285156 0 15 6.714844 15 15zm0 0" fill="#68544f"/><path d="m391 497c0 8.398438-6.597656 15-15 15h-241c-8.402344 0-15-6.601562-15-15 0-8.402344 6.597656-15 15-15h241c8.402344 0 15 6.597656 15 15zm0 0" fill="#c8ec4b"/><path d="m331 316v136h-151v-136c0-8.402344 6.597656-15 15-15h121c8.402344 0 15 6.597656 15 15zm0 0" fill="#866d67"/><path d="m256 181c-24.902344 0-45 20.097656-45 45 0 24.898438 20.097656 45 45 45s45-20.101562 45-45c0-24.902344-20.097656-45-45-45zm0 0" fill="#61d7b0"/><path d="m497 0h-31c-24.621094 0-46.316406 12.085938-60 30.464844-13.683594-18.378906-35.378906-30.464844-60-30.464844h-30c-8.289062 0-15 6.710938-15 15 0 41.351562 33.648438 76 75 76h60c41.351562 0 76-34.648438 76-76 0-8.289062-6.710938-15-15-15zm0 0" fill="#97d325"/><path d="m256 271v-90c24.902344 0 45 20.097656 45 45 0 24.898438-20.097656 45-45 45zm0 0" fill="#00ab94"/><path d="m331 452h-75v-151h60c8.402344 0 15 6.597656 15 15zm0 0" fill="#68544f"/><path d="m391 497c0 8.398438-6.597656 15-15 15h-120v-30h120c8.402344 0 15 6.597656 15 15zm0 0" fill="#97d325"/><path d="m478.300781 264.699219c-4.800781 6.898437-14.402343 8.402343-21 3.601562l-201.300781-144-202.300781 144c-6.597657 4.800781-16.199219 3.300781-21-3.601562-4.800781-6.597657-3.300781-16.199219 3.601562-21l211-150c2.699219-1.800781 5.699219-2.699219 8.699219-2.699219s6 .898438 8.699219 2.699219l210 150c6.902343 4.800781 8.402343 14.402343 3.601562 21zm0 0" fill="#ff9100"/><path d="m478.300781 264.699219c-4.800781 6.898437-14.402343 8.402343-21 3.601562l-201.300781-144v-33.300781c3 0 6 .898438 8.699219 2.699219l210 150c6.902343 4.800781 8.402343 14.402343 3.601562 21zm0 0" fill="#ff641a"/><path d="m135 512h-90c-24.8125 0-45-20.1875-45-45 0-19.570312 12.566406-36.269531 30.058594-42.449219-.042969-.851562-.058594-1.699219-.058594-2.550781 0-33.089844 26.910156-60 60-60s60 26.910156 60 60c0 .851562-.015625 1.699219-.058594 2.550781 17.492188 6.179688 30.058594 22.878907 30.058594 42.449219 0 24.8125-20.1875 45-45 45zm0 0" fill="#c8ec4b"/><path d="m466 512h-90c-24.8125 0-45-20.1875-45-45 0-19.570312 12.566406-36.269531 30.058594-42.449219-.042969-.851562-.058594-1.699219-.058594-2.550781 0-33.089844 26.910156-60 60-60s60 26.910156 60 60c0 .851562-.015625 1.699219-.058594 2.550781 17.492188 6.179688 31.058594 22.878907 31.058594 42.449219 0 24.8125-21.1875 45-46 45zm0 0" fill="#97d325"/></svg>